<svg xmlns="http://www.w3.org/2000/svg" width="150" height="50" viewBox="0,0,150,50"><path fill="#333" d="M18.21 29.17L18.29 29.25L18.24 29.20Q16.32 29.14 15.10 30.47L15.11 30.48L15.11 30.48Q13.92 31.84 13.76 33.74L13.71 33.69L13.70 33.68Q13.54 35.84 14.75 36.85L14.85 36.94L14.77 36.86Q16.00 37.88 18.13 37.80L18.18 37.86L18.16 37.83Q20.38 37.58 21.33 36.63L21.41 36.70L21.44 36.73Q22.41 35.23 22.29 33.40L22.34 33.44L22.29 33.40Q22.24 31.60 21.16 30.40L21.15 30.39L21.07 30.31Q20.10 29.23 18.28 29.23ZM18.13 19.68L18.17 19.73L18.21 19.76Q16.86 19.71 15.53 20.20L15.36 20.03L15.39 20.07Q14.25 21.02 14.48 22.89L14.34 22.75L14.29 22.70Q14.82 26.46 18.17 26.46L18.13 26.43L18.32 26.61Q19.88 26.80 20.87 25.66L20.83 25.62L20.69 25.48Q21.73 24.39 21.77 22.83L21.90 22.96L21.89 22.95Q21.93 21.16 21.20 20.55L21.25 20.59L21.21 20.56Q19.49 19.67 18.20 19.75ZM17.93 40.31L17.98 40.35L14.92 40.34L14.82 40.24Q13.43 40.38 12.10 39.50L12.09 39.49L12.04 39.45Q10.73 38.36 10.88 35.51L10.78 35.41L10.89 35.52Q11.20 28.51 14.82 27.53L14.81 27.52L14.85 27.56Q12.55 26.63 11.22 21.26L11.28 21.32L11.25 21.29Q10.90 19.87 10.97 19.07L10.93 19.03L10.94 19.04Q11.26 16.93 14.95 16.89L15.02 16.95L15.03 16.97Q19.22 16.86 20.67 17.05L20.58 16.96L20.67 17.05Q24.49 17.55 24.94 19.57L24.93 19.56L24.91 19.54Q25.14 20.26 25.14 20.64L25.10 20.61L25.06 20.56Q25.13 21.31 24.94 21.92L24.83 21.81L24.93 21.91Q24.23 26.05 21.30 27.57L21.33 27.61L21.42 27.69Q24.87 28.44 25.36 33.73L25.30 33.66L25.44 33.80Q25.26 33.78 25.30 35.07L25.43 35.20L25.36 35.14Q25.54 37.98 23.94 39.05L23.84 38.94L23.83 38.93Q22.46 39.82 17.90 40.27ZM20.27 42.69L20.23 42.64L23.65 42.80L23.57 42.72Q25.19 42.69 26.71 41.97L26.81 42.07L26.87 42.12Q27.88 41.27 27.96 39.41L27.97 39.42L28.03 39.48Q27.98 38.29 27.60 36.35L27.71 36.46L27.73 36.48Q26.72 31.74 24.63 29.87L24.68 29.93L24.42 29.48L24.33 29.31L24.15 29.02L24.20 29.07Q25.72 27.58 26.64 23.43L26.67 23.47L26.59 23.39Q26.74 23.15 26.82 22.32L26.80 22.30L26.67 22.17Q26.79 21.53 26.72 20.92L26.77 20.97L26.72 20.93Q26.55 19.46 25.37 18.97L25.49 19.09L25.40 18.96L25.31 18.94L25.27 18.91Q25.07 18.25 23.89 17.45L23.73 17.29L23.77 17.29L23.95 17.47Q21.96 16.78 17.89 16.59L17.82 16.52L17.91 16.61Q16.30 16.45 14.93 16.56L14.86 16.49L14.88 16.51Q14.08 16.55 12.79 16.70L12.72 16.63L12.73 16.65Q10.93 17.16 10.70 18.80L10.62 18.72L10.71 18.81Q10.62 19.25 10.66 20.05L10.63 20.03L10.62 20.01Q10.81 20.63 11.38 22.99L11.31 22.92L11.31 22.91Q12.16 26.20 13.91 27.53L13.84 27.46L13.93 27.55L13.97 27.59Q11.15 28.84 10.61 34.02L10.68 34.09L10.62 34.02Q10.43 36.23 10.43 37.15L10.49 37.21L10.42 37.14Q10.56 38.99 11.74 39.90L11.66 39.82L11.72 39.88Q11.81 39.94 12.08 40.13L12.13 40.18L12.14 40.19Q13.18 42.49 20.30 42.72ZM19.94 31.62L19.91 31.59L19.87 31.55Q20.82 31.51 21.69 31.97L21.71 31.98L21.75 32.03Q22.13 33.01 22.09 33.54L22.00 33.45L21.99 33.44Q22.01 33.73 22.01 34.03L22.03 34.05L22.09 34.12Q22.06 36.45 19.78 37.28L19.73 37.23L19.67 37.17Q18.89 37.50 18.09 37.39L18.20 37.50L18.09 37.39Q17.04 37.55 15.90 37.10L15.85 37.04L15.85 37.05Q15.61 36.42 15.68 35.43L15.72 35.47L15.68 35.43Q15.83 33.83 17.03 32.61L17.16 32.75L16.97 32.55Q18.20 31.37 19.80 31.48ZM20.09 22.07L20.18 22.15L20.16 22.13Q20.84 21.90 21.38 22.05L21.36 22.04L21.41 22.88L21.45 22.92Q21.37 24.26 20.46 25.27L20.60 25.41L20.51 25.32Q19.61 26.34 18.24 26.15L18.28 26.19L18.33 26.24Q17.33 26.23 16.91 26.01L16.91 26.00L16.75 25.84Q16.68 25.55 16.57 24.86L16.59 24.88L16.59 24.88Q16.44 23.59 17.65 22.75L17.72 22.81L17.61 22.70Q18.62 21.96 20.03 22.00Z"/><path fill="#444" d="M95.83 14.33L95.79 14.29L95.76 14.27Q98.40 16.07 100.15 16.49L100.06 16.40L100.07 16.41Q101.39 22.90 101.39 29.49L101.42 29.52L101.37 29.46Q101.49 33.59 100.96 37.59L100.97 37.60L100.87 37.50Q103.04 36.97 105.52 37.04L105.64 37.16L105.51 37.03Q108.04 37.16 110.17 37.89L110.18 37.90L110.22 37.94Q110.55 39.48 111.00 41.04L110.95 40.99L110.88 40.92Q107.47 39.53 103.62 39.79L103.63 39.80L103.68 39.85Q99.95 40.23 96.71 42.13L96.54 41.96L96.55 41.97Q98.84 35.20 98.57 28.19L98.59 28.21L98.58 28.20Q98.35 21.16 95.91 14.42ZM96.16 42.84L96.06 42.73L96.09 42.77Q96.74 42.35 98.11 41.63L98.09 41.60L98.07 41.58Q98.01 42.44 97.48 43.93L97.47 43.92L97.55 44.00Q100.93 42.16 104.77 42.16L104.91 42.30L104.77 42.16Q110.52 42.27 114.63 45.32L114.62 45.31L114.62 45.31Q113.86 43.71 112.83 40.74L112.95 40.86L112.81 40.72Q111.73 40.06 110.86 39.68L110.90 39.72L110.85 39.67Q110.87 39.12 110.56 37.71L110.44 37.58L110.47 37.61Q107.88 36.74 104.87 36.74L104.90 36.77L104.85 36.72Q104.06 36.68 103.26 36.72L103.38 36.85L103.29 36.76Q103.54 31.82 103.46 27.71L103.46 27.71L103.56 27.81Q103.33 23.55 102.99 18.56L103.15 18.72L103.14 18.72Q101.53 18.39 100.73 18.20L100.89 18.37L100.75 18.23Q100.65 17.52 100.43 16.11L100.58 16.27L100.48 16.16Q97.49 15.47 95.25 13.53L95.22 13.50L95.28 13.56Q97.86 20.48 98.13 27.98L98.23 28.08L98.14 27.99Q98.53 35.65 96.13 42.81Z"/><path fill="#444" d="M48.17 23.21L48.25 23.30L48.19 23.24Q46.44 19.12 40.24 19.32L40.32 19.40L40.37 19.45Q35.98 19.59 34.00 21.04L33.83 20.87L33.94 20.97Q31.48 22.66 31.48 26.78L31.52 26.82L31.56 28.73L31.46 28.62Q31.59 37.58 40.61 37.58L40.60 37.57L40.51 37.48Q42.52 37.43 44.00 36.64L44.02 36.65L44.10 36.74Q45.96 35.74 45.81 33.87L45.71 33.77L45.83 33.90Q45.49 31.65 41.80 30.74L41.79 30.73L39.85 30.73L39.92 30.80Q39.01 30.84 38.06 30.88L38.04 30.86L38.12 30.94Q38.07 29.94 38.03 28.03L38.06 28.06L37.92 27.93Q45.58 27.93 49.77 27.59L49.82 27.64L49.80 27.62Q49.71 28.41 49.71 29.21L49.75 29.24L49.74 29.23Q49.86 30.16 49.90 30.96L49.90 30.96L49.79 30.85Q48.78 30.94 48.78 30.94L48.76 30.92L48.72 30.89Q47.41 30.95 47.80 30.95L47.64 30.79L47.80 30.96Q48.74 32.42 49.12 34.40L49.21 34.50L49.16 34.45Q49.21 35.11 49.21 35.56L49.36 35.71L49.34 35.69Q49.28 40.27 40.48 40.27L40.44 40.23L40.51 40.30Q33.37 40.28 30.78 38.19L30.84 38.25L30.88 38.28Q28.73 35.75 28.73 30.69L28.85 30.81L28.79 30.75Q28.85 29.74 28.70 27.04L28.72 27.06L28.71 27.05Q28.45 24.59 28.49 23.21L28.58 23.30L28.50 23.23Q28.65 20.41 30.03 18.81L30.05 18.83L30.14 18.93Q32.59 16.77 37.46 16.58L37.47 16.59L40.21 16.59L40.10 16.48Q43.32 16.49 46.74 16.91L46.57 16.74L46.68 16.85Q50.38 17.27 51.33 20.51L51.29 20.47L51.46 20.64Q50.29 21.41 48.19 23.24ZM49.60 25.45L49.80 25.53L49.77 25.50Q50.92 24.37 52.79 22.39L52.82 22.42L52.75 22.35Q52.44 21.40 51.45 19.68L51.59 19.82L51.48 19.71Q50.28 17.02 46.47 16.37L46.49 16.39L46.61 16.51Q44.53 16.45 40.23 16.15L40.18 16.10L37.53 16.26L37.35 16.09Q32.29 16.40 29.70 18.38L29.62 18.29L29.72 18.39Q28.25 19.93 28.14 23.02L28.27 23.15L28.24 23.12Q28.12 22.54 28.35 28.02L28.47 28.14L28.43 28.11Q28.51 29.52 28.59 32.26L28.59 32.27L28.58 32.25Q28.77 36.71 30.52 38.65L30.56 38.69L30.39 38.51Q30.75 39.34 31.63 40.21L31.65 40.23L31.78 40.36Q34.68 42.24 40.20 42.58L40.06 42.43L42.98 42.65L43.11 42.79Q44.56 42.75 46.58 42.63L46.66 42.71L46.74 42.80Q48.00 42.54 50.09 42.00L50.10 42.01L50.18 42.09Q52.08 41.55 52.04 39.22L52.10 39.28L52.09 39.28Q52.04 37.97 50.97 35.19L50.93 35.15L50.93 35.15Q50.69 34.30 50.16 33.50L50.17 33.51L50.16 33.50Q50.80 33.57 51.98 33.76L51.94 33.73L51.93 33.71Q51.60 30.07 51.64 29.38L51.63 29.37L51.67 29.42Q51.35 29.48 50.93 29.44L50.95 29.46L50.85 29.36Q50.44 29.29 50.06 29.37L50.16 29.46L50.05 29.36Q50.24 28.44 50.31 27.37L50.31 27.37L50.25 27.31Q43.91 27.74 37.62 27.63L37.62 27.63L37.56 27.57Q37.79 28.67 37.79 29.58L37.78 29.57L37.67 31.22L37.68 31.23Q38.13 31.29 38.55 31.25L38.62 31.32L38.63 31.34Q38.97 31.26 39.42 31.26L39.28 31.11L39.35 31.18Q39.29 31.58 39.33 32.08L39.50 32.25L39.31 32.06Q39.45 32.65 39.41 33.15L39.36 33.09L39.43 33.17Q40.39 33.06 41.42 33.03L41.50 33.10L41.43 33.03Q42.51 33.08 43.54 33.12L43.61 33.20L43.43 33.02Q44.47 33.26 45.35 33.64L45.40 33.69L45.44 33.77L45.49 33.81Q45.71 35.41 44.04 36.32L43.97 36.26L43.94 36.23Q42.23 37.11 40.52 37.11L40.61 37.20L40.47 37.06Q36.71 37.15 34.28 35.40L34.35 35.47L34.18 35.30Q33.30 33.36 33.46 30.81L33.47 30.82L33.51 30.86Q33.79 26.04 35.64 24.04L35.66 24.07L35.68 24.09Q37.44 22.00 42.12 21.70L42.21 21.78L42.21 21.78Q45.88 21.57 47.82 23.36L47.73 23.26L47.83 23.37Q47.88 23.45 47.99 23.64L47.94 23.59L47.97 23.51L48.02 23.56Q48.64 24.30 49.21 25.40L49.19 25.38L49.68 25.52Z"/><path d="M13 16 C65 26,67 19,140 16" stroke="#888" fill="none"/><path fill="#333" d="M126.38 32.15L117.17 22.19L117.09 22.10Q117.94 25.81 117.94 29.54L117.87 29.47L118.06 29.66Q117.91 35.49 115.86 41.05L115.83 41.03L116.01 41.20Q114.77 41.29 112.52 42.05L112.55 42.08L112.61 42.14Q115.33 36.25 115.33 29.55L115.38 29.61L115.43 29.66Q115.35 20.94 110.86 13.52L110.86 13.51L110.88 13.54Q111.40 13.79 112.09 14.21L112.12 14.24L112.08 14.20Q124.19 25.44 132.03 34.69L132.07 34.73L131.89 34.54Q131.65 32.17 131.65 29.74L131.73 29.82L131.58 29.67Q131.70 22.55 134.21 16.35L134.19 16.32L134.15 16.29Q136.47 15.75 138.06 15.06L138.10 15.09L138.03 15.02Q134.79 21.26 134.48 28.42L134.47 28.40L134.50 28.44Q134.12 35.70 137.09 41.87L137.09 41.88L137.17 41.95Q136.57 41.85 136.15 41.66L136.09 41.60L136.25 41.76Q131.50 37.62 126.29 32.06L126.39 32.17ZM139.73 45.08L139.79 45.14L139.69 45.05Q140.32 45.37 140.74 45.56L140.61 45.44L141.53 45.86L141.53 45.86Q136.39 38.93 136.39 29.57L136.43 29.60L136.45 29.62Q136.38 22.33 139.70 16.08L139.68 16.07L139.70 16.08Q138.93 16.20 137.53 16.80L137.65 16.93L137.52 16.80Q137.95 16.01 138.79 14.45L138.92 14.59L138.75 14.42Q136.42 15.44 133.99 16.01L134.00 16.02L133.93 15.95Q131.27 22.39 131.27 29.81L131.27 29.81L131.20 29.74Q131.19 31.60 131.38 33.58L131.52 33.72L131.58 33.78Q126.79 27.96 122.04 23.36L122.01 23.33L111.90 13.61L111.91 13.61Q111.51 13.48 110.29 12.91L110.26 12.87L110.28 12.90Q115.13 20.60 115.13 29.70L115.15 29.72L115.09 29.66Q115.07 36.76 111.99 42.77L112.03 42.82L112.02 42.80Q112.23 42.60 113.86 41.99L113.90 42.03L113.98 42.10Q113.72 42.95 112.88 44.43L112.89 44.44L112.71 44.26Q114.15 43.84 117.62 43.04L117.61 43.03L117.54 42.96Q119.92 36.89 119.92 29.70L120.00 29.78L119.96 29.74Q119.96 27.64 119.74 25.51L119.68 25.45L119.73 25.51Q131.12 38.22 139.72 45.08Z"/><path d="M10 29 C67 33,92 16,146 18" stroke="#999" fill="none"/><path d="M10 19 C78 10,85 46,130 15" stroke="#555" fill="none"/><path fill="#222" d="M61.60 18.35L61.72 18.47L61.68 18.44Q61.01 18.87 60.86 19.67L60.87 19.68L60.84 24.79L60.74 24.69Q62.01 24.81 64.21 24.55L64.21 24.55L64.14 24.48Q64.10 24.89 64.06 25.73L64.13 25.80L64.11 25.77Q64.16 26.63 64.16 27.09L64.17 27.09L62.43 27.03L62.46 27.06Q61.76 27.23 60.88 27.23L60.83 27.18L60.83 27.18Q60.72 31.26 60.65 39.64L60.83 39.82L60.71 39.70Q58.44 39.71 56.96 40.40L57.06 40.50L57.10 40.54Q58.15 34.36 58.03 27.12L57.96 27.05L57.99 27.08Q57.27 26.97 55.97 26.70L56.14 26.87L56.15 26.87Q56.12 25.85 55.93 23.91L55.89 23.88L55.97 23.96Q56.95 24.33 57.90 24.52L58.02 24.64L57.90 24.52Q57.90 23.91 57.60 21.43L57.58 21.42L57.59 21.43Q57.29 19.30 57.29 18.35L57.29 18.35L57.32 18.38Q57.42 16.81 58.83 16.24L58.76 16.17L58.72 16.13Q59.69 15.91 64.53 15.08L64.34 14.89L64.38 14.93Q65.29 14.89 66.12 14.77L66.09 14.74L66.09 14.74Q65.84 15.48 65.69 16.35L65.65 16.32L65.35 17.88L65.30 17.83Q64.64 17.67 64.15 17.78L64.27 17.91L64.31 17.94Q63.65 17.90 61.75 18.50ZM67.18 19.63L67.04 19.50L67.15 19.60Q67.47 17.37 68.08 14.82L68.08 14.82L68.03 14.77Q67.58 15.27 66.28 15.88L66.29 15.89L66.65 14.16L66.54 14.05Q65.35 14.27 62.88 14.80L62.97 14.89L62.83 14.75Q61.72 14.90 58.52 15.81L58.49 15.78L58.51 15.80Q57.00 16.26 57.00 18.13L56.89 18.02L56.91 18.04Q56.92 18.36 57.00 18.70L57.01 18.71L57.04 18.74Q57.19 19.99 57.30 21.33L57.43 21.45L57.51 24.01L57.48 23.98Q56.16 23.66 55.52 23.20L55.43 23.12L55.59 23.27Q55.68 24.20 55.72 25.23L55.66 25.17L55.75 27.12L55.89 27.27Q56.53 27.37 57.33 27.45L57.39 27.51L57.26 29.47L57.70 29.53L57.64 29.47Q57.61 35.68 56.62 41.13L56.51 41.02L56.55 41.06Q57.60 40.62 58.78 40.35L58.82 40.40L58.62 42.45L58.65 42.48Q59.93 42.23 61.22 42.19L61.05 42.02L61.15 42.11Q62.34 42.05 63.59 42.32L63.63 42.35L63.60 42.32Q62.69 37.26 62.69 29.30L62.83 29.44L62.76 29.37Q63.82 29.33 65.92 29.41L65.97 29.47L66.01 27.64L66.04 27.67Q66.02 26.70 66.06 25.74L65.92 25.61L65.96 25.64Q65.51 25.76 64.44 26.03L64.39 25.98L64.34 25.93Q64.51 25.41 64.62 24.08L64.62 24.07L64.58 24.04Q63.66 24.18 62.86 24.26L62.84 24.24L62.96 24.36Q62.88 22.88 63.00 21.47L63.00 21.47L63.03 21.50Q63.19 20.86 63.72 20.51L63.74 20.53L63.81 20.61Q64.72 19.88 65.54 19.80L65.43 19.69L65.39 19.65Q66.25 19.61 67.08 19.54Z"/><path fill="#222" d="M80.99 27.68L80.92 27.61L80.88 27.57Q78.63 27.57 77.36 29.07L77.47 29.18L77.52 29.24Q76.13 30.63 76.02 32.91L76.15 33.04L76.16 33.05Q75.99 35.67 76.83 36.62L76.73 36.52L76.70 36.49Q77.84 37.78 80.17 37.63L80.14 37.60L80.28 37.74Q84.81 37.32 85.19 34.32L85.18 34.31L85.13 34.26Q85.38 33.59 85.38 32.79L85.39 32.80L85.26 32.68Q85.22 30.65 84.08 29.13L84.23 29.28L84.05 29.10Q82.82 27.53 80.88 27.57ZM85.86 37.81L85.71 37.65L85.69 37.63Q84.27 39.83 79.89 40.06L79.86 40.03L80.00 40.17Q75.76 40.27 74.12 39.16L74.02 39.06L74.18 39.22Q73.14 38.22 72.99 36.51L73.07 36.59L72.93 36.45Q72.93 35.39 73.12 33.52L73.23 33.63L73.25 33.64Q73.64 29.24 74.86 27.41L74.97 27.52L74.88 27.43Q76.51 24.96 80.36 24.99L80.29 24.92L80.38 25.01Q82.91 25.07 85.20 27.39L85.18 27.38L85.20 27.40Q85.23 21.49 86.82 14.98L86.91 15.06L86.93 15.09Q88.85 14.68 90.71 13.84L90.57 13.70L90.59 13.72Q87.97 20.31 87.70 27.31L87.69 27.30L87.73 27.34Q87.38 34.46 89.52 41.04L89.61 41.13L89.64 41.17Q87.99 40.55 86.28 40.16L86.17 40.06L86.36 40.24Q85.87 38.77 85.72 37.66ZM88.87 43.25L88.79 43.17L88.72 43.10Q90.93 43.79 93.48 45.31L93.54 45.37L93.40 45.23Q89.68 38.16 89.53 29.86L89.55 29.89L89.58 29.91Q89.52 21.78 92.60 14.39L92.63 14.42L92.54 14.34Q91.94 14.87 90.49 15.52L90.37 15.40L90.39 15.42Q90.68 14.22 91.28 13.00L91.28 12.99L91.31 13.03Q88.97 14.16 86.54 14.73L86.44 14.63L86.49 14.68Q85.03 20.46 84.77 26.55L84.82 26.60L84.90 26.68Q82.81 24.67 80.30 24.56L80.32 24.57L80.31 24.57Q76.97 24.53 75.06 26.63L75.04 26.60L74.95 26.52Q73.24 28.87 72.82 33.56L72.82 33.56L72.90 33.64Q72.68 36.42 72.68 36.84L72.71 36.88L72.60 36.77Q72.64 38.48 73.78 39.54L73.95 39.71L73.90 39.67Q74.08 39.85 74.27 39.92L74.25 39.90L74.68 40.52L74.65 40.49Q75.77 41.99 78.73 42.25L78.65 42.17L78.66 42.18Q80.85 42.31 82.22 42.39L82.34 42.50L82.34 42.51Q86.39 42.56 88.10 41.22L88.12 41.24L88.27 41.39Q88.45 42.15 88.91 43.29ZM82.52 29.90L82.46 29.84L82.60 29.98Q83.68 30.03 84.51 30.52L84.52 30.52L84.50 30.51Q84.95 31.76 85.03 32.79L84.96 32.72L84.95 32.70Q85.36 37.04 80.34 37.38L80.27 37.32L80.31 37.35Q79.30 37.26 78.20 36.99L78.30 37.09L78.23 37.03Q77.96 36.38 77.88 35.84L77.93 35.89L77.89 35.85Q77.94 35.29 77.97 34.68L77.95 34.65L78.03 34.73Q78.32 31.29 80.95 30.30L80.84 30.19L80.99 30.34Q81.82 29.84 82.50 29.88Z"/></svg>
